<svg xmlns="http://www.w3.org/2000/svg" viewBox="0 0 420 480" width="420" height="480">
  <!-- 3〜5歳向け ティラノサウルス ぬりえ -->

  <!-- しっぽ -->
  <path d="M340 370 Q400 340 395 290 Q390 260 370 250" fill="white" stroke="#222" stroke-width="11" stroke-linecap="round" stroke-linejoin="round"/>

  <!-- からだ -->
  <ellipse cx="230" cy="310" rx="130" ry="90" fill="white" stroke="#222" stroke-width="11"/>

  <!-- うしろあし（左） -->
  <path d="M165 385 Q150 420 145 455" fill="none" stroke="#222" stroke-width="13" stroke-linecap="round"/>
  <path d="M130 455 Q145 458 165 455 Q175 458 180 455" fill="none" stroke="#222" stroke-width="11" stroke-linecap="round"/>

  <!-- うしろあし（右） -->
  <path d="M235 390 Q240 425 245 455" fill="none" stroke="#222" stroke-width="13" stroke-linecap="round"/>
  <path d="M230 455 Q245 458 265 455 Q275 458 280 455" fill="none" stroke="#222" stroke-width="11" stroke-linecap="round"/>

  <!-- くび -->
  <path d="M150 250 Q120 200 110 150" fill="white" stroke="#222" stroke-width="11" stroke-linejoin="round"/>
  <path d="M190 260 Q170 210 160 160" fill="white" stroke="#222" stroke-width="11" stroke-linejoin="round"/>
  <line x1="110" y1="150" x2="160" y2="160" stroke="#222" stroke-width="11"/>

  <!-- あたま -->
  <path d="M90 90 Q80 50 130 40 Q200 30 220 80 Q230 110 200 130 Q170 150 120 145 Q80 140 90 90Z"
        fill="white" stroke="#222" stroke-width="11"/>

  <!-- め -->
  <circle cx="155" cy="75" r="12" fill="#222"/>
  <circle cx="161" cy="70" r="4" fill="white"/>

  <!-- はなのあな -->
  <ellipse cx="110" cy="60" rx="6" ry="5" fill="#222"/>

  <!-- くち -->
  <path d="M85 100 Q90 120 130 125 Q160 125 200 115" fill="none" stroke="#222" stroke-width="9" stroke-linecap="round"/>

  <!-- きば -->
  <path d="M105 103 L100 118 L113 108" fill="#222"/>
  <path d="M130 110 L127 124 L138 112" fill="#222"/>
  <path d="M155 114 L153 128 L163 116" fill="#222"/>

  <!-- ちいさなまえあし -->
  <path d="M165 280 Q145 285 130 295 Q120 308 122 315" fill="none" stroke="#222" stroke-width="10" stroke-linecap="round"/>
  <path d="M110 313 Q122 320 130 316 Q137 321 145 315" fill="none" stroke="#222" stroke-width="9" stroke-linecap="round"/>

  <!-- からだのもよう（うろこ） -->
  <path d="M200 290 Q215 280 230 290" fill="none" stroke="#222" stroke-width="6"/>
  <path d="M240 300 Q255 290 270 300" fill="none" stroke="#222" stroke-width="6"/>
  <path d="M200 320 Q220 310 240 320" fill="none" stroke="#222" stroke-width="6"/>
  <path d="M250 330 Q265 320 280 330" fill="none" stroke="#222" stroke-width="6"/>
</svg>
