<svg xmlns="http://www.w3.org/2000/svg" viewBox="0 0 400 480" width="400" height="480">
  <!-- 3〜4歳向け・ぞうとき のなか -->

  <!-- き（木） -->
  <rect x="318" y="200" width="18" height="200" rx="8" fill="white" stroke="#222" stroke-width="7"/>
  <ellipse cx="327" cy="185" rx="52" ry="48" fill="white" stroke="#222" stroke-width="7"/>
  <ellipse cx="305" cy="158" rx="36" ry="32" fill="white" stroke="#222" stroke-width="7"/>
  <ellipse cx="350" cy="160" rx="36" ry="32" fill="white" stroke="#222" stroke-width="7"/>

  <!-- ちょうちょ -->
  <ellipse cx="55" cy="80" rx="22" ry="14" fill="white" stroke="#222" stroke-width="6" transform="rotate(-30 55 80)"/>
  <ellipse cx="82" cy="80" rx="22" ry="14" fill="white" stroke="#222" stroke-width="6" transform="rotate(30 82 80)"/>
  <ellipse cx="55" cy="100" rx="16" ry="10" fill="white" stroke="#222" stroke-width="6" transform="rotate(30 55 100)"/>
  <ellipse cx="82" cy="100" rx="16" ry="10" fill="white" stroke="#222" stroke-width="6" transform="rotate(-30 82 100)"/>
  <circle cx="68" cy="90" r="5" fill="#222"/>

  <!-- くさ -->
  <path d="M10 400 Q15 375 20 400" fill="none" stroke="#222" stroke-width="6" stroke-linecap="round"/>
  <path d="M25 400 Q32 370 38 400" fill="none" stroke="#222" stroke-width="6" stroke-linecap="round"/>
  <path d="M42 400 Q47 380 52 400" fill="none" stroke="#222" stroke-width="6" stroke-linecap="round"/>

  <!-- からだ -->
  <ellipse cx="185" cy="350" rx="130" ry="105" fill="white" stroke="#222" stroke-width="10"/>

  <!-- あたま -->
  <circle cx="185" cy="182" r="96" fill="white" stroke="#222" stroke-width="10"/>

  <!-- ひだり耳 -->
  <ellipse cx="63" cy="172" rx="60" ry="73" fill="white" stroke="#222" stroke-width="10"/>
  <!-- 耳の内側 -->
  <ellipse cx="68" cy="172" rx="38" ry="48" fill="white" stroke="#222" stroke-width="7"/>

  <!-- みぎ耳 -->
  <ellipse cx="307" cy="172" rx="60" ry="73" fill="white" stroke="#222" stroke-width="10"/>
  <!-- 耳の内側 -->
  <ellipse cx="302" cy="172" rx="38" ry="48" fill="white" stroke="#222" stroke-width="7"/>

  <!-- ひだり目 -->
  <circle cx="148" cy="160" r="16" fill="#222"/>
  <circle cx="155" cy="154" r="5" fill="white"/>

  <!-- みぎ目 -->
  <circle cx="222" cy="160" r="16" fill="#222"/>
  <circle cx="229" cy="154" r="5" fill="white"/>

  <!-- まゆげ -->
  <path d="M135 143 Q148 136 162 143" fill="none" stroke="#222" stroke-width="6" stroke-linecap="round"/>
  <path d="M209 143 Q222 136 236 143" fill="none" stroke="#222" stroke-width="6" stroke-linecap="round"/>

  <!-- はな（トランク） -->
  <path d="M163 228 Q138 278 158 325 Q170 352 185 350 Q200 352 212 325 Q232 278 207 228" fill="white" stroke="#222" stroke-width="10" stroke-linejoin="round"/>
  <ellipse cx="185" cy="346" rx="22" ry="15" fill="white" stroke="#222" stroke-width="8"/>
  <!-- トランクのしわ -->
  <path d="M163 268 Q185 260 207 268" fill="none" stroke="#222" stroke-width="5" stroke-linecap="round"/>
  <path d="M158 295 Q185 287 212 295" fill="none" stroke="#222" stroke-width="5" stroke-linecap="round"/>

  <!-- しっぽ -->
  <path d="M312 322 Q338 300 334 338 Q330 355 316 350" fill="none" stroke="#222" stroke-width="7" stroke-linecap="round"/>

  <!-- ひだりまえあし -->
  <ellipse cx="128" cy="448" rx="44" ry="25" fill="white" stroke="#222" stroke-width="10"/>
  <!-- ひだりうしろあし -->
  <ellipse cx="88" cy="450" rx="38" ry="22" fill="white" stroke="#222" stroke-width="9"/>

  <!-- みぎまえあし -->
  <ellipse cx="242" cy="448" rx="44" ry="25" fill="white" stroke="#222" stroke-width="10"/>
  <!-- みぎうしろあし -->
  <ellipse cx="282" cy="450" rx="38" ry="22" fill="white" stroke="#222" stroke-width="9"/>
</svg>
