<svg xmlns="http://www.w3.org/2000/svg" viewBox="0 0 400 480" width="400" height="480">
  <!-- 4〜6歳向け・ぞうのおやこ・こうえん -->

  <!-- おひさま -->
  <circle cx="355" cy="45" r="28" fill="white" stroke="#222" stroke-width="7"/>
  <line x1="355" y1="8" x2="355" y2="0" stroke="#222" stroke-width="6" stroke-linecap="round"/>
  <line x1="385" y1="20" x2="392" y2="14" stroke="#222" stroke-width="6" stroke-linecap="round"/>
  <line x1="393" y1="50" x2="402" y2="48" stroke="#222" stroke-width="6" stroke-linecap="round"/>
  <line x1="380" y1="74" x2="386" y2="80" stroke="#222" stroke-width="6" stroke-linecap="round"/>
  <line x1="330" y1="74" x2="324" y2="80" stroke="#222" stroke-width="6" stroke-linecap="round"/>
  <line x1="316" y1="50" x2="308" y2="48" stroke="#222" stroke-width="6" stroke-linecap="round"/>
  <line x1="326" y1="20" x2="318" y2="14" stroke="#222" stroke-width="6" stroke-linecap="round"/>

  <!-- き（木）左 -->
  <rect x="20" y="220" width="14" height="180" rx="6" fill="white" stroke="#222" stroke-width="6"/>
  <ellipse cx="27" cy="208" rx="42" ry="38" fill="white" stroke="#222" stroke-width="6"/>
  <ellipse cx="10" cy="186" rx="28" ry="24" fill="white" stroke="#222" stroke-width="6"/>
  <ellipse cx="44" cy="186" rx="28" ry="24" fill="white" stroke="#222" stroke-width="6"/>

  <!-- き（木）右 -->
  <rect x="365" y="230" width="14" height="180" rx="6" fill="white" stroke="#222" stroke-width="6"/>
  <ellipse cx="372" cy="218" rx="38" ry="34" fill="white" stroke="#222" stroke-width="6"/>

  <!-- くさ -->
  <path d="M80 420 Q85 398 90 420" fill="none" stroke="#222" stroke-width="5" stroke-linecap="round"/>
  <path d="M95 420 Q101 393 107 420" fill="none" stroke="#222" stroke-width="5" stroke-linecap="round"/>
  <path d="M285 420 Q290 398 295 420" fill="none" stroke="#222" stroke-width="5" stroke-linecap="round"/>
  <path d="M300 420 Q306 393 312 420" fill="none" stroke="#222" stroke-width="5" stroke-linecap="round"/>

  <!-- ===== おやのぞう（左・大きい） ===== -->
  <!-- からだ -->
  <ellipse cx="148" cy="348" rx="108" ry="88" fill="white" stroke="#222" stroke-width="9"/>
  <!-- あたま -->
  <circle cx="148" cy="200" r="82" fill="white" stroke="#222" stroke-width="9"/>
  <!-- ひだり耳 -->
  <ellipse cx="48" cy="192" rx="50" ry="60" fill="white" stroke="#222" stroke-width="9"/>
  <ellipse cx="53" cy="192" rx="32" ry="40" fill="white" stroke="#222" stroke-width="6"/>
  <!-- みぎ耳 -->
  <ellipse cx="248" cy="192" rx="50" ry="60" fill="white" stroke="#222" stroke-width="9"/>
  <ellipse cx="243" cy="192" rx="32" ry="40" fill="white" stroke="#222" stroke-width="6"/>
  <!-- 目 -->
  <circle cx="118" cy="182" r="13" fill="#222"/>
  <circle cx="124" cy="177" r="4" fill="white"/>
  <circle cx="178" cy="182" r="13" fill="#222"/>
  <circle cx="184" cy="177" r="4" fill="white"/>
  <!-- トランク -->
  <path d="M130 262 Q112 300 125 338 Q134 358 148 356 Q162 358 171 338 Q184 300 166 262" fill="white" stroke="#222" stroke-width="9" stroke-linejoin="round"/>
  <ellipse cx="148" cy="353" rx="18" ry="12" fill="white" stroke="#222" stroke-width="7"/>
  <!-- しわ -->
  <path d="M130 296 Q148 288 166 296" fill="none" stroke="#222" stroke-width="4" stroke-linecap="round"/>
  <!-- しっぽ -->
  <path d="M253 318 Q275 302 271 330 Q268 343 257 340" fill="none" stroke="#222" stroke-width="6" stroke-linecap="round"/>
  <!-- あし -->
  <ellipse cx="98" cy="428" rx="36" ry="21" fill="white" stroke="#222" stroke-width="9"/>
  <ellipse cx="62" cy="430" rx="30" ry="18" fill="white" stroke="#222" stroke-width="8"/>
  <ellipse cx="198" cy="428" rx="36" ry="21" fill="white" stroke="#222" stroke-width="9"/>
  <ellipse cx="234" cy="430" rx="30" ry="18" fill="white" stroke="#222" stroke-width="8"/>

  <!-- ===== こどものぞう（右・小さい） ===== -->
  <!-- からだ -->
  <ellipse cx="318" cy="378" rx="72" ry="60" fill="white" stroke="#222" stroke-width="8"/>
  <!-- あたま -->
  <circle cx="318" cy="272" r="55" fill="white" stroke="#222" stroke-width="8"/>
  <!-- ひだり耳 -->
  <ellipse cx="253" cy="268" rx="34" ry="42" fill="white" stroke="#222" stroke-width="8"/>
  <ellipse cx="257" cy="268" rx="22" ry="28" fill="white" stroke="#222" stroke-width="5"/>
  <!-- みぎ耳 -->
  <ellipse cx="383" cy="268" rx="34" ry="42" fill="white" stroke="#222" stroke-width="8"/>
  <ellipse cx="379" cy="268" rx="22" ry="28" fill="white" stroke="#222" stroke-width="5"/>
  <!-- 目 -->
  <circle cx="298" cy="260" r="9" fill="#222"/>
  <circle cx="303" cy="256" r="3" fill="white"/>
  <circle cx="338" cy="260" r="9" fill="#222"/>
  <circle cx="343" cy="256" r="3" fill="white"/>
  <!-- トランク -->
  <path d="M305 318 Q292 346 300 370 Q307 382 318 380 Q329 382 336 370 Q344 346 331 318" fill="white" stroke="#222" stroke-width="8" stroke-linejoin="round"/>
  <ellipse cx="318" cy="377" rx="12" ry="9" fill="white" stroke="#222" stroke-width="6"/>
  <!-- あし -->
  <ellipse cx="290" cy="432" rx="25" ry="15" fill="white" stroke="#222" stroke-width="8"/>
  <ellipse cx="346" cy="432" rx="25" ry="15" fill="white" stroke="#222" stroke-width="8"/>

  <!-- ちょうちょ -->
  <ellipse cx="200" cy="105" rx="17" ry="11" fill="white" stroke="#222" stroke-width="5" transform="rotate(-30 200 105)"/>
  <ellipse cx="222" cy="105" rx="17" ry="11" fill="white" stroke="#222" stroke-width="5" transform="rotate(30 222 105)"/>
  <ellipse cx="200" cy="120" rx="12" ry="8" fill="white" stroke="#222" stroke-width="5" transform="rotate(30 200 120)"/>
  <ellipse cx="222" cy="120" rx="12" ry="8" fill="white" stroke="#222" stroke-width="5" transform="rotate(-30 222 120)"/>
  <circle cx="211" cy="112" r="4" fill="#222"/>
</svg>
