<svg xmlns="http://www.w3.org/2000/svg" viewBox="0 0 400 460" width="400" height="460">
  <!-- 3〜6歳向け ハロウィン かぼちゃ ぬりえ -->

  <!-- 茎 -->
  <path d="M200 55 Q210 35 225 30 Q235 28 230 40" fill="none" stroke="#222" stroke-width="9" stroke-linecap="round"/>
  <path d="M200 55 Q195 38 200 28" fill="none" stroke="#222" stroke-width="8" stroke-linecap="round"/>

  <!-- 葉っぱ -->
  <path d="M225 38 Q255 20 260 42 Q240 48 225 38Z" fill="white" stroke="#222" stroke-width="7"/>

  <!-- かぼちゃ本体（中央） -->
  <ellipse cx="200" cy="240" rx="80" ry="110" fill="white" stroke="#222" stroke-width="11"/>

  <!-- かぼちゃ本体（左） -->
  <path d="M120 200 Q70 180 65 240 Q60 300 120 320" fill="white" stroke="#222" stroke-width="11" stroke-linecap="round"/>

  <!-- かぼちゃ本体（右） -->
  <path d="M280 200 Q330 180 335 240 Q340 300 280 320" fill="white" stroke="#222" stroke-width="11" stroke-linecap="round"/>

  <!-- かぼちゃの縦筋（左） -->
  <path d="M145 140 Q130 240 145 340" fill="none" stroke="#222" stroke-width="8" stroke-linecap="round"/>

  <!-- かぼちゃの縦筋（右） -->
  <path d="M255 140 Q270 240 255 340" fill="none" stroke="#222" stroke-width="8" stroke-linecap="round"/>

  <!-- 目（三角・左） -->
  <polygon points="155,215 140,250 170,250" fill="#222"/>

  <!-- 目（三角・右） -->
  <polygon points="245,215 230,250 260,250" fill="#222"/>

  <!-- 鼻（小さい三角） -->
  <polygon points="200,260 190,280 210,280" fill="#222"/>

  <!-- 口（ジャックオランタン） -->
  <path d="M145 300 Q155 330 165 310 Q175 330 185 310 Q195 330 210 310 Q220 330 232 310 Q242 330 255 300"
        fill="none" stroke="#222" stroke-width="9" stroke-linecap="round" stroke-linejoin="round"/>

  <!-- ハイライト（おでこ） -->
  <path d="M180 155 Q200 148 220 155" fill="none" stroke="#222" stroke-width="6" stroke-linecap="round"/>
</svg>
