<svg xmlns="http://www.w3.org/2000/svg" viewBox="0 0 400 520" width="400" height="520">
  <!-- 3〜5歳向け 数字1〜5 なぞり書き練習 -->

  <text x="200" y="36" font-family="sans-serif" font-size="20" font-weight="bold" fill="#222" text-anchor="middle">すうじ なぞり書き 1〜5</text>
  <text x="200" y="58" font-family="sans-serif" font-size="13" fill="#6B7280" text-anchor="middle">なぞってみよう！</text>

  <!-- 1行: 1 -->
  <g transform="translate(15, 68)">
    <!-- 手本 -->
    <rect width="70" height="80" rx="6" fill="#FFF7ED" stroke="#F97316" stroke-width="2"/>
    <line x1="35" y1="0" x2="35" y2="80" stroke="#FED7AA" stroke-width="1" stroke-dasharray="3,3"/>
    <line x1="0" y1="40" x2="70" y2="40" stroke="#FED7AA" stroke-width="1" stroke-dasharray="3,3"/>
    <text x="35" y="65" font-family="serif" font-size="52" fill="#FDBA74" text-anchor="middle" dominant-baseline="auto">1</text>
    <text x="8" y="18" font-family="sans-serif" font-size="11" fill="#F97316" font-weight="bold">①</text>
  </g>
  <!-- なぞり×3 -->
  <g transform="translate(95, 68)"><rect width="70" height="80" rx="6" fill="white" stroke="#E2E8F0" stroke-width="2"/><line x1="35" y1="0" x2="35" y2="80" stroke="#F1F5F9" stroke-width="1" stroke-dasharray="3,3"/><line x1="0" y1="40" x2="70" y2="40" stroke="#F1F5F9" stroke-width="1" stroke-dasharray="3,3"/><text x="35" y="65" font-family="serif" font-size="52" fill="#D1D9E0" text-anchor="middle" dominant-baseline="auto">1</text></g>
  <g transform="translate(175, 68)"><rect width="70" height="80" rx="6" fill="white" stroke="#E2E8F0" stroke-width="2"/><line x1="35" y1="0" x2="35" y2="80" stroke="#F1F5F9" stroke-width="1" stroke-dasharray="3,3"/><line x1="0" y1="40" x2="70" y2="40" stroke="#F1F5F9" stroke-width="1" stroke-dasharray="3,3"/><text x="35" y="65" font-family="serif" font-size="52" fill="#D1D9E0" text-anchor="middle" dominant-baseline="auto">1</text></g>
  <!-- 自分で書く -->
  <g transform="translate(255, 68)"><rect width="70" height="80" rx="6" fill="white" stroke="#E2E8F0" stroke-width="2"/><line x1="35" y1="0" x2="35" y2="80" stroke="#F1F5F9" stroke-width="1" stroke-dasharray="3,3"/><line x1="0" y1="40" x2="70" y2="40" stroke="#F1F5F9" stroke-width="1" stroke-dasharray="3,3"/></g>
  <g transform="translate(335, 68)"><rect width="70" height="80" rx="6" fill="white" stroke="#E2E8F0" stroke-width="2"/><line x1="35" y1="0" x2="35" y2="80" stroke="#F1F5F9" stroke-width="1" stroke-dasharray="3,3"/><line x1="0" y1="40" x2="70" y2="40" stroke="#F1F5F9" stroke-width="1" stroke-dasharray="3,3"/></g>

  <!-- 2行: 2 -->
  <g transform="translate(15, 163)">
    <rect width="70" height="80" rx="6" fill="#FFF7ED" stroke="#F97316" stroke-width="2"/>
    <line x1="35" y1="0" x2="35" y2="80" stroke="#FED7AA" stroke-width="1" stroke-dasharray="3,3"/>
    <line x1="0" y1="40" x2="70" y2="40" stroke="#FED7AA" stroke-width="1" stroke-dasharray="3,3"/>
    <text x="35" y="65" font-family="serif" font-size="52" fill="#FDBA74" text-anchor="middle" dominant-baseline="auto">2</text>
    <text x="8" y="18" font-family="sans-serif" font-size="11" fill="#F97316" font-weight="bold">②</text>
  </g>
  <g transform="translate(95, 163)"><rect width="70" height="80" rx="6" fill="white" stroke="#E2E8F0" stroke-width="2"/><line x1="35" y1="0" x2="35" y2="80" stroke="#F1F5F9" stroke-width="1" stroke-dasharray="3,3"/><line x1="0" y1="40" x2="70" y2="40" stroke="#F1F5F9" stroke-width="1" stroke-dasharray="3,3"/><text x="35" y="65" font-family="serif" font-size="52" fill="#D1D9E0" text-anchor="middle" dominant-baseline="auto">2</text></g>
  <g transform="translate(175, 163)"><rect width="70" height="80" rx="6" fill="white" stroke="#E2E8F0" stroke-width="2"/><line x1="35" y1="0" x2="35" y2="80" stroke="#F1F5F9" stroke-width="1" stroke-dasharray="3,3"/><line x1="0" y1="40" x2="70" y2="40" stroke="#F1F5F9" stroke-width="1" stroke-dasharray="3,3"/><text x="35" y="65" font-family="serif" font-size="52" fill="#D1D9E0" text-anchor="middle" dominant-baseline="auto">2</text></g>
  <g transform="translate(255, 163)"><rect width="70" height="80" rx="6" fill="white" stroke="#E2E8F0" stroke-width="2"/><line x1="35" y1="0" x2="35" y2="80" stroke="#F1F5F9" stroke-width="1" stroke-dasharray="3,3"/><line x1="0" y1="40" x2="70" y2="40" stroke="#F1F5F9" stroke-width="1" stroke-dasharray="3,3"/></g>
  <g transform="translate(335, 163)"><rect width="70" height="80" rx="6" fill="white" stroke="#E2E8F0" stroke-width="2"/><line x1="35" y1="0" x2="35" y2="80" stroke="#F1F5F9" stroke-width="1" stroke-dasharray="3,3"/><line x1="0" y1="40" x2="70" y2="40" stroke="#F1F5F9" stroke-width="1" stroke-dasharray="3,3"/></g>

  <!-- 3行: 3 -->
  <g transform="translate(15, 258)">
    <rect width="70" height="80" rx="6" fill="#FFF7ED" stroke="#F97316" stroke-width="2"/>
    <line x1="35" y1="0" x2="35" y2="80" stroke="#FED7AA" stroke-width="1" stroke-dasharray="3,3"/>
    <line x1="0" y1="40" x2="70" y2="40" stroke="#FED7AA" stroke-width="1" stroke-dasharray="3,3"/>
    <text x="35" y="65" font-family="serif" font-size="52" fill="#FDBA74" text-anchor="middle" dominant-baseline="auto">3</text>
    <text x="8" y="18" font-family="sans-serif" font-size="11" fill="#F97316" font-weight="bold">③</text>
  </g>
  <g transform="translate(95, 258)"><rect width="70" height="80" rx="6" fill="white" stroke="#E2E8F0" stroke-width="2"/><line x1="35" y1="0" x2="35" y2="80" stroke="#F1F5F9" stroke-width="1" stroke-dasharray="3,3"/><line x1="0" y1="40" x2="70" y2="40" stroke="#F1F5F9" stroke-width="1" stroke-dasharray="3,3"/><text x="35" y="65" font-family="serif" font-size="52" fill="#D1D9E0" text-anchor="middle" dominant-baseline="auto">3</text></g>
  <g transform="translate(175, 258)"><rect width="70" height="80" rx="6" fill="white" stroke="#E2E8F0" stroke-width="2"/><line x1="35" y1="0" x2="35" y2="80" stroke="#F1F5F9" stroke-width="1" stroke-dasharray="3,3"/><line x1="0" y1="40" x2="70" y2="40" stroke="#F1F5F9" stroke-width="1" stroke-dasharray="3,3"/><text x="35" y="65" font-family="serif" font-size="52" fill="#D1D9E0" text-anchor="middle" dominant-baseline="auto">3</text></g>
  <g transform="translate(255, 258)"><rect width="70" height="80" rx="6" fill="white" stroke="#E2E8F0" stroke-width="2"/><line x1="35" y1="0" x2="35" y2="80" stroke="#F1F5F9" stroke-width="1" stroke-dasharray="3,3"/><line x1="0" y1="40" x2="70" y2="40" stroke="#F1F5F9" stroke-width="1" stroke-dasharray="3,3"/></g>
  <g transform="translate(335, 258)"><rect width="70" height="80" rx="6" fill="white" stroke="#E2E8F0" stroke-width="2"/><line x1="35" y1="0" x2="35" y2="80" stroke="#F1F5F9" stroke-width="1" stroke-dasharray="3,3"/><line x1="0" y1="40" x2="70" y2="40" stroke="#F1F5F9" stroke-width="1" stroke-dasharray="3,3"/></g>

  <!-- 4行: 4 -->
  <g transform="translate(15, 353)">
    <rect width="70" height="80" rx="6" fill="#FFF7ED" stroke="#F97316" stroke-width="2"/>
    <line x1="35" y1="0" x2="35" y2="80" stroke="#FED7AA" stroke-width="1" stroke-dasharray="3,3"/>
    <line x1="0" y1="40" x2="70" y2="40" stroke="#FED7AA" stroke-width="1" stroke-dasharray="3,3"/>
    <text x="35" y="65" font-family="serif" font-size="52" fill="#FDBA74" text-anchor="middle" dominant-baseline="auto">4</text>
    <text x="8" y="18" font-family="sans-serif" font-size="11" fill="#F97316" font-weight="bold">④</text>
  </g>
  <g transform="translate(95, 353)"><rect width="70" height="80" rx="6" fill="white" stroke="#E2E8F0" stroke-width="2"/><line x1="35" y1="0" x2="35" y2="80" stroke="#F1F5F9" stroke-width="1" stroke-dasharray="3,3"/><line x1="0" y1="40" x2="70" y2="40" stroke="#F1F5F9" stroke-width="1" stroke-dasharray="3,3"/><text x="35" y="65" font-family="serif" font-size="52" fill="#D1D9E0" text-anchor="middle" dominant-baseline="auto">4</text></g>
  <g transform="translate(175, 353)"><rect width="70" height="80" rx="6" fill="white" stroke="#E2E8F0" stroke-width="2"/><line x1="35" y1="0" x2="35" y2="80" stroke="#F1F5F9" stroke-width="1" stroke-dasharray="3,3"/><line x1="0" y1="40" x2="70" y2="40" stroke="#F1F5F9" stroke-width="1" stroke-dasharray="3,3"/><text x="35" y="65" font-family="serif" font-size="52" fill="#D1D9E0" text-anchor="middle" dominant-baseline="auto">4</text></g>
  <g transform="translate(255, 353)"><rect width="70" height="80" rx="6" fill="white" stroke="#E2E8F0" stroke-width="2"/><line x1="35" y1="0" x2="35" y2="80" stroke="#F1F5F9" stroke-width="1" stroke-dasharray="3,3"/><line x1="0" y1="40" x2="70" y2="40" stroke="#F1F5F9" stroke-width="1" stroke-dasharray="3,3"/></g>
  <g transform="translate(335, 353)"><rect width="70" height="80" rx="6" fill="white" stroke="#E2E8F0" stroke-width="2"/><line x1="35" y1="0" x2="35" y2="80" stroke="#F1F5F9" stroke-width="1" stroke-dasharray="3,3"/><line x1="0" y1="40" x2="70" y2="40" stroke="#F1F5F9" stroke-width="1" stroke-dasharray="3,3"/></g>

  <!-- 5行: 5 -->
  <g transform="translate(15, 448)">
    <rect width="70" height="80" rx="6" fill="#FFF7ED" stroke="#F97316" stroke-width="2"/>
    <line x1="35" y1="0" x2="35" y2="80" stroke="#FED7AA" stroke-width="1" stroke-dasharray="3,3"/>
    <line x1="0" y1="40" x2="70" y2="40" stroke="#FED7AA" stroke-width="1" stroke-dasharray="3,3"/>
    <text x="35" y="65" font-family="serif" font-size="52" fill="#FDBA74" text-anchor="middle" dominant-baseline="auto">5</text>
    <text x="8" y="18" font-family="sans-serif" font-size="11" fill="#F97316" font-weight="bold">⑤</text>
  </g>
  <g transform="translate(95, 448)"><rect width="70" height="80" rx="6" fill="white" stroke="#E2E8F0" stroke-width="2"/><line x1="35" y1="0" x2="35" y2="80" stroke="#F1F5F9" stroke-width="1" stroke-dasharray="3,3"/><line x1="0" y1="40" x2="70" y2="40" stroke="#F1F5F9" stroke-width="1" stroke-dasharray="3,3"/><text x="35" y="65" font-family="serif" font-size="52" fill="#D1D9E0" text-anchor="middle" dominant-baseline="auto">5</text></g>
  <g transform="translate(175, 448)"><rect width="70" height="80" rx="6" fill="white" stroke="#E2E8F0" stroke-width="2"/><line x1="35" y1="0" x2="35" y2="80" stroke="#F1F5F9" stroke-width="1" stroke-dasharray="3,3"/><line x1="0" y1="40" x2="70" y2="40" stroke="#F1F5F9" stroke-width="1" stroke-dasharray="3,3"/><text x="35" y="65" font-family="serif" font-size="52" fill="#D1D9E0" text-anchor="middle" dominant-baseline="auto">5</text></g>
  <g transform="translate(255, 448)"><rect width="70" height="80" rx="6" fill="white" stroke="#E2E8F0" stroke-width="2"/><line x1="35" y1="0" x2="35" y2="80" stroke="#F1F5F9" stroke-width="1" stroke-dasharray="3,3"/><line x1="0" y1="40" x2="70" y2="40" stroke="#F1F5F9" stroke-width="1" stroke-dasharray="3,3"/></g>
  <g transform="translate(335, 448)"><rect width="70" height="80" rx="6" fill="white" stroke="#E2E8F0" stroke-width="2"/><line x1="35" y1="0" x2="35" y2="80" stroke="#F1F5F9" stroke-width="1" stroke-dasharray="3,3"/><line x1="0" y1="40" x2="70" y2="40" stroke="#F1F5F9" stroke-width="1" stroke-dasharray="3,3"/></g>
</svg>
