<svg xmlns="http://www.w3.org/2000/svg" width="800" height="240" viewBox="0 0 800 240">
  <defs>
    <linearGradient id="bg26" x1="0%" y1="0%" x2="100%" y2="100%">
      <stop offset="0%" stop-color="#fdf2f8"/>
      <stop offset="100%" stop-color="#f472b6" stop-opacity="0.3"/>
    </linearGradient>
  </defs>
  <rect width="800" height="240" fill="url(#bg26)"/>
  <circle cx="60" cy="40" r="6" fill="#fdf2f8" opacity="0.2"/><circle cx="60" cy="100" r="6" fill="#fdf2f8" opacity="0.2"/><circle cx="60" cy="160" r="6" fill="#fdf2f8" opacity="0.2"/><circle cx="60" cy="220" r="6" fill="#fdf2f8" opacity="0.2"/><circle cx="140" cy="40" r="6" fill="#fdf2f8" opacity="0.2"/><circle cx="140" cy="100" r="6" fill="#fdf2f8" opacity="0.2"/><circle cx="140" cy="160" r="6" fill="#fdf2f8" opacity="0.2"/><circle cx="140" cy="220" r="6" fill="#fdf2f8" opacity="0.2"/><circle cx="220" cy="40" r="6" fill="#fdf2f8" opacity="0.2"/><circle cx="220" cy="100" r="6" fill="#fdf2f8" opacity="0.2"/><circle cx="220" cy="160" r="6" fill="#fdf2f8" opacity="0.2"/><circle cx="220" cy="220" r="6" fill="#fdf2f8" opacity="0.2"/><circle cx="300" cy="40" r="6" fill="#fdf2f8" opacity="0.2"/><circle cx="300" cy="100" r="6" fill="#fdf2f8" opacity="0.2"/><circle cx="300" cy="160" r="6" fill="#fdf2f8" opacity="0.2"/><circle cx="300" cy="220" r="6" fill="#fdf2f8" opacity="0.2"/><circle cx="380" cy="40" r="6" fill="#fdf2f8" opacity="0.2"/><circle cx="380" cy="100" r="6" fill="#fdf2f8" opacity="0.2"/><circle cx="380" cy="160" r="6" fill="#fdf2f8" opacity="0.2"/><circle cx="380" cy="220" r="6" fill="#fdf2f8" opacity="0.2"/><circle cx="460" cy="40" r="6" fill="#fdf2f8" opacity="0.2"/><circle cx="460" cy="100" r="6" fill="#fdf2f8" opacity="0.2"/><circle cx="460" cy="160" r="6" fill="#fdf2f8" opacity="0.2"/><circle cx="460" cy="220" r="6" fill="#fdf2f8" opacity="0.2"/><circle cx="540" cy="40" r="6" fill="#fdf2f8" opacity="0.2"/><circle cx="540" cy="100" r="6" fill="#fdf2f8" opacity="0.2"/><circle cx="540" cy="160" r="6" fill="#fdf2f8" opacity="0.2"/><circle cx="540" cy="220" r="6" fill="#fdf2f8" opacity="0.2"/><circle cx="620" cy="40" r="6" fill="#fdf2f8" opacity="0.2"/><circle cx="620" cy="100" r="6" fill="#fdf2f8" opacity="0.2"/><circle cx="620" cy="160" r="6" fill="#fdf2f8" opacity="0.2"/><circle cx="620" cy="220" r="6" fill="#fdf2f8" opacity="0.2"/><circle cx="700" cy="40" r="6" fill="#fdf2f8" opacity="0.2"/><circle cx="700" cy="100" r="6" fill="#fdf2f8" opacity="0.2"/><circle cx="700" cy="160" r="6" fill="#fdf2f8" opacity="0.2"/><circle cx="700" cy="220" r="6" fill="#fdf2f8" opacity="0.2"/><circle cx="780" cy="40" r="6" fill="#fdf2f8" opacity="0.2"/><circle cx="780" cy="100" r="6" fill="#fdf2f8" opacity="0.2"/><circle cx="780" cy="160" r="6" fill="#fdf2f8" opacity="0.2"/><circle cx="780" cy="220" r="6" fill="#fdf2f8" opacity="0.2"/>
  <!-- decorative circle accent -->
  <circle cx="720" cy="220" r="120" fill="#f472b6" opacity="0.12"/>
  <circle cx="100" cy="30" r="80" fill="#db2777" opacity="0.08"/>
</svg>